<svg version="1.1" id="Layer_1" xmlns="http://www.w3.org/2000/svg" xmlns:xlink="http://www.w3.org/1999/xlink" x="0px" y="0px"
	 width="100%" viewBox="0 0 512 512" enable-background="new 0 0 512 512" xml:space="preserve">
<path fill="#000000" opacity="1.000000" stroke="none" 
	d="
M313.000000,1.000004 
	C379.628204,1.000000 446.256378,1.000000 512.942261,1.000000 
	C512.942261,171.666656 512.942261,342.333344 512.942261,513.000000 
	C497.919952,513.000000 482.928619,513.000000 467.158234,512.707581 
	C469.529846,509.726685 471.436340,506.190948 469.631989,502.382477 
	C467.780487,498.474426 463.846832,497.859650 459.517242,497.901001 
	C441.033386,498.077667 422.546021,497.888153 404.174438,497.527954 
	C415.889832,487.069031 421.033173,474.418213 420.115570,458.920471 
	C419.507874,448.656952 420.029114,438.328217 419.993866,428.028839 
	C419.939423,412.137970 408.517853,396.610809 393.134399,390.867920 
	C385.540619,388.033112 377.807068,388.074402 370.140472,387.521088 
	C386.113739,378.026093 401.933075,368.823059 417.783813,359.674561 
	C422.283691,357.077423 423.314941,354.401123 421.132233,349.614990 
	C419.309998,345.619263 417.485260,341.594818 415.230377,337.842194 
	C414.426086,336.503723 412.127167,334.917633 410.907104,335.194183 
	C407.541626,335.957031 404.385651,337.644226 401.077026,338.593872 
	C398.700317,333.322662 396.523193,328.356812 394.050110,323.542999 
	C391.563690,318.703217 389.432404,318.071442 384.850494,320.633545 
	C378.870789,323.977325 372.972961,327.467529 367.022614,330.432922 
	C367.004120,305.697021 367.057831,281.422607 366.955750,257.148865 
	C366.935150,252.250031 366.906403,247.228714 365.886475,242.477432 
	C361.035797,219.881180 343.111481,202.753952 318.540009,202.044769 
	C308.406494,201.752274 298.258728,201.955902 288.065521,201.472015 
	C288.022125,192.049866 288.030640,183.089600 288.401428,174.068756 
	C297.264465,170.009720 304.680939,164.247025 308.356781,155.728485 
	C311.500671,148.442642 315.613983,145.792725 323.144409,146.941132 
	C329.701996,147.941162 334.960693,145.007385 339.205261,140.246033 
	C346.734619,131.800034 345.826385,111.174477 336.051056,104.393837 
	C335.967377,95.229713 335.904236,86.524040 335.899414,77.364349 
	C335.972137,63.113083 335.700531,49.307930 336.082397,35.520874 
	C336.454895,22.071405 327.365479,7.428598 313.893677,2.888499 
	C313.435669,2.734139 313.290802,1.650499 313.000000,1.000004 
z"/>
<path fill="#000000" opacity="1.000000" stroke="none" 
	d="
M46.000000,513.000000 
	C31.008673,513.000000 16.017345,513.000000 1.019513,513.000000 
	C1.013009,342.440674 1.013009,171.881363 1.013009,1.000000 
	C67.353882,1.000000 133.708282,1.000000 200.836823,1.301788 
	C200.814926,2.070654 200.066696,2.664557 199.215576,2.985545 
	C188.684830,6.956953 178.137909,20.560997 178.031448,31.039974 
	C177.872833,46.651627 178.068588,62.266884 178.074371,78.355537 
	C178.001541,87.503510 177.967926,96.176552 177.629120,105.006882 
	C168.976837,112.110016 169.134903,121.528542 170.467224,130.879852 
	C171.920471,141.079742 181.354706,148.180466 191.505478,147.059296 
	C194.614227,146.715927 197.800522,147.074448 201.096588,147.434158 
	C202.149872,149.447021 203.125977,151.104599 203.954590,152.832886 
	C208.670334,162.668900 215.882675,169.908936 225.994293,174.622040 
	C225.967896,184.033493 225.937027,192.990921 225.500015,201.987579 
	C223.737122,202.078598 222.380386,202.130371 220.560913,202.093216 
	C209.212341,202.331635 198.209305,201.775574 187.469040,203.200302 
	C172.604187,205.172180 161.686111,213.966660 154.041321,226.730164 
	C148.542511,235.910797 147.033417,246.132202 146.988724,256.608582 
	C146.884445,281.047791 146.900696,305.487518 146.537445,329.826630 
	C139.767014,325.935852 133.429214,321.948547 126.803604,318.517059 
	C125.437698,317.809662 121.845978,318.561096 121.247299,319.686523 
	C118.109795,325.584564 115.605225,331.819336 112.556152,337.822113 
	C111.036697,336.882843 109.914276,335.917999 108.634674,335.257843 
	C102.062378,331.867249 100.368568,332.477478 96.944244,339.268494 
	C95.621071,341.892517 94.203049,344.471130 92.952896,347.129059 
	C90.649216,352.026917 91.692169,355.062531 96.227013,357.693237 
	C113.496735,367.711670 130.737915,377.779236 147.526703,387.899170 
	C139.981445,388.310455 132.820190,388.098511 125.832397,389.098663 
	C107.385811,391.738831 92.045853,408.997894 92.003387,428.095276 
	C91.973381,441.589752 91.962029,455.084564 92.033165,468.578705 
	C92.042313,470.313080 92.591202,472.045837 92.902397,473.777130 
	C94.705994,483.811127 101.250198,490.879974 107.500458,497.910858 
	C88.627449,497.985748 70.216286,497.968079 51.805271,498.013092 
	C45.080326,498.029541 41.832485,503.933197 45.186611,509.750702 
	C45.722927,510.680908 45.741875,511.909393 46.000000,513.000000 
z"/>
<path fill="#E2DEE2" opacity="1.000000" stroke="none" 
	d="
M312.531311,1.000004 
	C313.290802,1.650499 313.435669,2.734139 313.893677,2.888499 
	C327.365479,7.428598 336.454895,22.071405 336.082397,35.520874 
	C335.700531,49.307930 335.972137,63.113083 335.441254,77.370888 
	C328.239899,77.882011 321.555084,77.932556 314.410431,77.953560 
	C284.295715,77.957100 254.640793,77.990189 224.563629,77.973083 
	C222.443970,77.858681 220.746567,77.794472 219.043457,77.278564 
	C219.032852,64.377869 218.874969,51.926571 219.060745,39.480408 
	C219.308075,22.911583 225.435547,9.871902 241.689255,3.176954 
	C242.603317,2.800451 243.236237,1.741377 244.000000,0.999999 
	C266.687561,1.000000 289.375122,1.000000 312.531311,1.000004 
z"/>
<path fill="#FE646F" opacity="1.000000" stroke="none" 
	d="
M46.468658,513.000000 
	C45.741875,511.909393 45.722927,510.680908 45.186611,509.750702 
	C41.832485,503.933197 45.080326,498.029541 51.805271,498.013092 
	C70.216286,497.968079 88.627449,497.985748 107.966133,497.985809 
	C115.854347,497.946625 122.814972,497.900238 130.256500,497.898712 
	C137.505753,497.926666 144.274124,497.909790 151.505676,497.929474 
	C159.007538,497.938751 166.046249,497.911438 173.546844,497.923309 
	C193.651794,497.975586 213.294846,498.011261 232.937881,497.996796 
	C268.893463,497.970276 304.849030,497.914093 341.284027,497.909241 
	C349.165680,497.930145 356.567871,497.912079 364.441010,497.930634 
	C371.308014,497.935516 377.704102,497.903748 384.560699,497.914001 
	C391.367462,497.914734 397.713684,497.873474 404.059937,497.832214 
	C422.546021,497.888153 441.033386,498.077667 459.517242,497.901001 
	C463.846832,497.859650 467.780487,498.474426 469.631989,502.382477 
	C471.436340,506.190948 469.529846,509.726685 466.689575,512.707581 
	C326.979095,513.000000 186.958206,513.000000 46.468658,513.000000 
z"/>
<path fill="#CBC4CC" opacity="1.000000" stroke="none" 
	d="
M243.531342,0.999999 
	C243.236237,1.741377 242.603317,2.800451 241.689255,3.176954 
	C225.435547,9.871902 219.308075,22.911583 219.060745,39.480408 
	C218.874969,51.926571 219.032852,64.377869 218.576874,77.364059 
	C211.736191,77.974350 205.356354,78.047462 198.510773,78.059967 
	C191.401184,77.959778 184.757370,77.920197 178.113556,77.880608 
	C178.068588,62.266884 177.872833,46.651627 178.031448,31.039974 
	C178.137909,20.560997 188.684830,6.956953 199.215576,2.985545 
	C200.066696,2.664557 200.814926,2.070654 201.305481,1.301788 
	C215.020889,1.000000 229.041794,1.000000 243.531342,0.999999 
z"/>
<path fill="#E2DEE2" opacity="1.000000" stroke="none" 
	d="
M221.023636,202.182159 
	C222.380386,202.130371 223.737122,202.078598 225.972717,202.026291 
	C232.269653,202.142105 237.687744,202.258453 243.078827,202.807709 
	C243.039032,222.624100 242.996841,242.007660 243.055435,261.390930 
	C243.061829,263.505981 243.379745,265.712463 244.067535,267.698425 
	C244.481155,268.892639 245.860443,270.562469 246.858597,270.599640 
	C250.565033,270.737701 254.293396,270.287262 258.470795,270.051514 
	C260.926331,270.041138 262.932434,269.922150 264.921082,270.058319 
	C268.450745,270.300018 270.087006,269.011261 270.059570,265.225250 
	C269.907471,244.246201 269.907593,223.266052 270.328857,202.225937 
	C276.573883,202.088348 282.345642,202.011108 288.117432,201.933884 
	C298.258728,201.955902 308.406494,201.752274 318.540009,202.044769 
	C343.111481,202.753952 361.035797,219.881180 365.886475,242.477432 
	C366.906403,247.228714 366.935150,252.250031 366.955750,257.148865 
	C367.057831,281.422607 367.004120,305.697021 366.860718,330.740173 
	C358.873688,336.026489 351.031219,340.543854 343.136841,344.589417 
	C343.067566,336.797821 343.040070,329.478058 343.035004,322.158264 
	C343.025696,308.682678 343.008209,295.207031 343.042023,281.731537 
	C343.051208,278.068176 341.903442,274.713715 338.261108,273.892822 
	C335.881134,273.356476 332.327789,273.866974 330.677032,275.395599 
	C328.939758,277.004333 328.155548,280.378418 328.135223,282.990295 
	C327.951324,306.612762 328.026489,330.237213 327.822998,354.141846 
	C307.090759,366.284515 286.450378,377.961212 266.109894,390.138824 
	C261.040253,393.173981 257.165924,394.227081 251.680603,390.967438 
	C229.872452,378.007965 207.792847,365.505341 185.862625,352.383362 
	C185.931808,329.398590 186.141052,306.861023 185.786758,284.332275 
	C185.727646,280.572571 183.218964,276.851349 181.886414,272.638580 
	C181.953430,265.699066 181.991852,259.233337 181.996246,252.767624 
	C182.011795,229.891846 195.750916,211.167709 217.508591,204.274048 
	C218.774155,203.873062 219.856201,202.892838 221.023636,202.182159 
z"/>
<path fill="#D8AA5F" opacity="1.000000" stroke="none" 
	d="
M363.970093,497.893982 
	C356.567871,497.912079 349.165680,497.930145 341.168060,497.612793 
	C320.771576,477.501007 300.970490,457.724701 281.130768,437.909760 
	C277.666473,439.752167 274.476410,441.448730 270.952087,442.994446 
	C262.554108,438.209656 254.479843,433.594025 246.428864,428.938141 
	C226.446365,417.382263 206.479889,405.798615 186.496841,394.243652 
	C164.932220,381.774170 143.348434,369.337830 121.792213,356.853851 
	C118.007492,354.661957 116.923897,351.592743 119.179115,347.607300 
	C119.915604,346.305847 120.519577,344.929352 121.514038,343.725769 
	C129.849823,348.305359 137.855743,352.746338 146.089355,357.437805 
	C181.217377,377.765350 216.201492,397.699463 250.935318,418.060547 
	C256.713959,421.448029 261.006714,420.954376 266.447327,417.779785 
	C304.815552,395.391571 343.342987,373.276428 381.772827,350.993408 
	C388.345642,347.182220 394.694519,342.984863 401.146820,338.965881 
	C404.385651,337.644226 407.541626,335.957031 410.907104,335.194183 
	C412.127167,334.917633 414.426086,336.503723 415.230377,337.842194 
	C417.485260,341.594818 419.309998,345.619263 421.132233,349.614990 
	C423.314941,354.401123 422.283691,357.077423 417.783813,359.674561 
	C401.933075,368.823059 386.113739,378.026093 369.766907,387.591980 
	C367.570496,388.609650 365.767792,389.030426 364.227448,389.910400 
	C346.644073,399.955658 329.090851,410.053986 311.572113,420.211426 
	C310.570618,420.792114 309.937775,422.008636 308.749847,422.954559 
	C305.698395,424.247528 303.078857,425.632843 300.351410,426.755951 
	C295.980499,428.555786 296.937195,430.530121 299.660278,433.227020 
	C314.064667,447.492981 328.385834,461.843231 342.689301,476.210602 
	C349.834137,483.387421 356.879669,490.663055 363.970093,497.893982 
z"/>
<path fill="#02C0FA" opacity="1.000000" stroke="none" 
	d="
M309.133362,422.929230 
	C309.937775,422.008636 310.570618,420.792114 311.572113,420.211426 
	C329.090851,410.053986 346.644073,399.955658 364.227448,389.910400 
	C365.767792,389.030426 367.570496,388.609650 369.624878,387.904663 
	C377.807068,388.074402 385.540619,388.033112 393.134399,390.867920 
	C408.517853,396.610809 419.939423,412.137970 419.993866,428.028839 
	C420.029114,438.328217 419.507874,448.656952 420.115570,458.920471 
	C421.033173,474.418213 415.889832,487.069031 404.174438,497.527985 
	C397.713684,497.873474 391.367462,497.914734 384.418884,497.616455 
	C371.101471,484.554504 358.410889,471.807465 345.664185,459.116730 
	C333.517700,447.023621 321.312653,434.989349 309.133362,422.929230 
z"/>
<path fill="#FEBC86" opacity="1.000000" stroke="none" 
	d="
M224.985870,78.023285 
	C254.640793,77.990189 284.295715,77.957100 314.408325,78.422546 
	C314.866058,86.151711 314.866058,93.382324 314.866058,99.268204 
	C322.601501,101.305191 329.336548,103.078743 336.071625,104.852295 
	C345.826385,111.174477 346.734619,131.800034 339.205261,140.246033 
	C334.960693,145.007385 329.701996,147.941162 323.144409,146.941132 
	C315.613983,145.792725 311.500671,148.442642 308.356781,155.728485 
	C304.680939,164.247025 297.264465,170.009720 288.033752,174.084167 
	C279.535431,175.775818 271.766998,177.391541 263.732971,178.937332 
	C263.297699,178.798447 263.128052,178.729477 262.841370,178.336166 
	C261.376831,177.473526 260.063995,176.814682 258.676453,176.415482 
	C244.130295,172.230377 234.240692,162.862122 228.191071,149.175827 
	C224.135590,140.000961 224.993835,130.284439 225.398743,120.713562 
	C231.799271,120.232407 234.405060,118.047241 234.867813,112.908508 
	C235.061340,110.759407 234.979218,108.577637 234.910522,106.414268 
	C234.712219,100.167839 231.498795,97.284317 225.003662,96.957268 
	C224.993790,90.314812 224.989822,84.169044 224.985870,78.023285 
M234.459824,139.171341 
	C231.953049,143.170776 232.537186,146.588150 236.073608,149.778900 
	C246.845474,159.497864 267.286102,159.522644 277.944489,149.725082 
	C281.437958,146.513763 282.035461,142.457596 279.504883,139.132339 
	C276.955261,135.782059 272.862396,135.112137 268.869904,137.940826 
	C260.974487,143.534790 253.216309,143.548706 245.310654,138.125198 
	C241.768890,135.695465 238.273407,135.247253 234.459824,139.171341 
M259.056915,134.016617 
	C263.951965,131.524399 266.324280,126.644257 263.207336,123.360542 
	C259.478607,119.432320 260.861298,116.796486 263.096527,113.201118 
	C265.472595,109.379303 264.210175,104.656525 260.869171,102.700050 
	C257.467010,100.707756 252.924286,101.785255 250.437271,105.443855 
	C247.830490,109.278664 245.100143,113.107262 243.149261,117.277924 
	C242.147156,119.420265 241.598557,123.243729 242.796234,124.677055 
	C246.758224,129.418533 251.148788,134.193512 259.056915,134.016617 
M293.002289,117.071442 
	C293.358185,113.158043 293.978943,109.246208 294.001923,105.330864 
	C294.029694,100.598526 291.034698,97.492172 286.902740,97.314026 
	C283.067291,97.148666 279.575378,100.444214 279.156036,104.904930 
	C278.924316,107.370041 278.442352,110.112900 279.246338,112.299133 
	C280.290894,115.139610 282.003387,118.207016 284.337158,119.981621 
	C287.274567,122.215187 290.285797,120.285210 293.002289,117.071442 
z"/>
<path fill="#F3F0F2" opacity="1.000000" stroke="none" 
	d="
M401.077026,338.593872 
	C394.694519,342.984863 388.345642,347.182220 381.772827,350.993408 
	C343.342987,373.276428 304.815552,395.391571 266.447327,417.779785 
	C261.006714,420.954376 256.713959,421.448029 250.935318,418.060547 
	C216.201492,397.699463 181.217377,377.765350 146.253555,357.104309 
	C149.460022,349.681854 152.730011,342.843292 156.319489,336.138733 
	C161.412857,338.867126 166.186722,341.461517 171.186646,344.306732 
	C176.213043,347.316193 181.013412,350.074829 185.813782,352.833496 
	C207.792847,365.505341 229.872452,378.007965 251.680603,390.967438 
	C257.165924,394.227081 261.040253,393.173981 266.109894,390.138824 
	C286.450378,377.961212 307.090759,366.284515 328.153687,354.058228 
	C333.520996,350.816254 338.354889,347.938721 343.188782,345.061188 
	C351.031219,340.543854 358.873688,336.026489 366.878021,331.201904 
	C372.972961,327.467529 378.870789,323.977325 384.850494,320.633545 
	C389.432404,318.071442 391.563690,318.703217 394.050110,323.542999 
	C396.523193,328.356812 398.700317,333.322662 401.077026,338.593872 
z"/>
<path fill="#B6AEB6" opacity="1.000000" stroke="none" 
	d="
M263.998596,179.007248 
	C271.766998,177.391541 279.535431,175.775818 287.671509,174.144714 
	C288.030640,183.089600 288.022125,192.049866 288.065521,201.472015 
	C282.345642,202.011108 276.573883,202.088348 269.919647,202.160950 
	C267.369812,202.078369 265.702423,202.000412 264.031372,201.460861 
	C264.017975,193.668594 264.008270,186.337921 263.998596,179.007248 
z"/>
<path fill="#554E56" opacity="1.000000" stroke="none" 
	d="
M336.051056,104.393837 
	C329.336548,103.078743 322.601501,101.305191 314.866058,99.268204 
	C314.866058,93.382324 314.866058,86.151711 314.868164,78.452103 
	C321.555084,77.932556 328.239899,77.882011 335.382935,77.824921 
	C335.904236,86.524040 335.967377,95.229713 336.051056,104.393837 
z"/>
<path fill="#08A9F1" opacity="1.000000" stroke="none" 
	d="
M129.775604,497.853851 
	C122.814972,497.900238 115.854347,497.946625 108.428040,497.918060 
	C101.250198,490.879974 94.705994,483.811127 92.902397,473.777130 
	C92.591202,472.045837 92.042313,470.313080 92.033165,468.578705 
	C91.962029,455.084564 91.973381,441.589752 92.003387,428.095276 
	C92.045853,408.997894 107.385811,391.738831 125.832397,389.098663 
	C132.820190,388.098511 139.981445,388.310455 147.887207,387.974854 
	C152.837433,390.298248 156.964111,392.616699 160.779343,395.084167 
	C148.407303,403.341858 141.247375,414.315277 141.029999,429.152588 
	C140.871643,439.961395 140.526871,450.802551 141.169876,461.575287 
	C141.577469,468.403809 143.645447,475.133209 144.835663,482.215820 
	C139.726883,487.634308 134.751236,492.744080 129.775604,497.853851 
z"/>
<path fill="#CBC4CC" opacity="1.000000" stroke="none" 
	d="
M170.960602,344.055908 
	C166.186722,341.461517 161.412857,338.867126 156.115753,335.872711 
	C152.684402,333.624146 149.776260,331.775574 146.868134,329.927032 
	C146.900696,305.487518 146.884445,281.047791 146.988724,256.608582 
	C147.033417,246.132202 148.542511,235.910797 154.041321,226.730164 
	C161.686111,213.966660 172.604187,205.172180 187.469040,203.200302 
	C198.209305,201.775574 209.212341,202.331635 220.560913,202.093216 
	C219.856201,202.892838 218.774155,203.873062 217.508591,204.274048 
	C195.750916,211.167709 182.011795,229.891846 181.996246,252.767624 
	C181.991852,259.233337 181.953430,265.699066 181.486557,272.609985 
	C173.424576,273.113892 171.008804,275.542023 170.999390,283.252319 
	C170.974625,303.520203 170.972015,323.788055 170.960602,344.055908 
z"/>
<path fill="#C99C57" opacity="1.000000" stroke="none" 
	d="
M161.090775,394.935150 
	C156.964111,392.616699 152.837433,390.298248 148.350281,387.904114 
	C130.737915,377.779236 113.496735,367.711670 96.227013,357.693237 
	C91.692169,355.062531 90.649216,352.026917 92.952896,347.129059 
	C94.203049,344.471130 95.621071,341.892517 96.944244,339.268494 
	C100.368568,332.477478 102.062378,331.867249 108.634674,335.257843 
	C109.914276,335.917999 111.036697,336.882843 112.755859,338.102661 
	C115.914787,340.194519 118.549469,341.890839 121.184151,343.587189 
	C120.519577,344.929352 119.915604,346.305847 119.179115,347.607300 
	C116.923897,351.592743 118.007492,354.661957 121.792213,356.853851 
	C143.348434,369.337830 164.932220,381.774170 186.496841,394.243652 
	C206.479889,405.798615 226.446365,417.382263 246.428864,428.938141 
	C254.479843,433.594025 262.554108,438.209656 270.757812,443.283691 
	C269.332428,444.657440 267.628662,445.420197 266.226318,446.555298 
	C261.115234,450.692322 256.370148,450.380829 250.900864,446.736725 
	C245.309341,443.011139 239.069901,440.257996 232.935303,436.779694 
	C228.173538,433.974945 223.590515,431.469666 218.842682,428.667847 
	C214.473297,425.911072 210.268768,423.450867 205.867126,420.708405 
	C190.810287,411.929138 175.950531,403.432129 161.090775,394.935150 
z"/>
<path fill="#F6A96C" opacity="1.000000" stroke="none" 
	d="
M224.563614,77.973083 
	C224.989822,84.169044 224.993790,90.314812 224.747223,97.140701 
	C217.577881,102.851448 217.867157,115.685661 225.011459,120.658768 
	C224.993835,130.284439 224.135590,140.000961 228.191071,149.175827 
	C234.240692,162.862122 244.130295,172.230377 258.676453,176.415482 
	C260.063995,176.814682 261.376831,177.473526 262.384857,178.408127 
	C258.007050,178.855804 253.968765,178.907181 249.505539,178.932327 
	C241.383682,177.326736 233.686752,175.747391 225.989838,174.168030 
	C215.882675,169.908936 208.670334,162.668900 203.954590,152.832886 
	C203.125977,151.104599 202.149872,149.447021 201.108063,147.010406 
	C200.315735,138.576355 199.417450,130.899567 199.067520,123.197868 
	C198.730270,115.775749 198.959457,108.327888 198.965897,100.430817 
	C198.986832,92.687050 198.981689,85.403809 198.976532,78.120575 
	C205.356354,78.047462 211.736191,77.974350 218.582581,77.815750 
	C220.746567,77.794472 222.443970,77.858681 224.563614,77.973083 
z"/>
<path fill="#EA9B58" opacity="1.000000" stroke="none" 
	d="
M198.939804,100.891342 
	C198.959457,108.327888 198.730270,115.775749 199.067520,123.197868 
	C199.417450,130.899567 200.315735,138.576355 200.962769,146.687790 
	C197.800522,147.074448 194.614227,146.715927 191.505478,147.059296 
	C181.354706,148.180466 171.920471,141.079742 170.467224,130.879852 
	C169.134903,121.528542 168.976837,112.110016 177.982773,104.962013 
	C184.805893,100.312744 191.954575,101.030853 198.939804,100.891342 
z"/>
<path fill="#E2DDE1" opacity="1.000000" stroke="none" 
	d="
M121.514038,343.725769 
	C118.549469,341.890839 115.914787,340.194519 113.080406,338.217621 
	C115.605225,331.819336 118.109795,325.584564 121.247299,319.686523 
	C121.845978,318.561096 125.437698,317.809662 126.803604,318.517059 
	C133.429214,321.948547 139.767014,325.935852 146.537445,329.826630 
	C149.776260,331.775574 152.684402,333.624146 155.796265,335.738708 
	C152.730011,342.843292 149.460022,349.681854 146.025848,356.853851 
	C137.855743,352.746338 129.849823,348.305359 121.514038,343.725769 
z"/>
<path fill="#B6AEB6" opacity="1.000000" stroke="none" 
	d="
M225.994293,174.622040 
	C233.686752,175.747391 241.383682,177.326736 249.521912,179.404938 
	C249.948120,187.216339 249.933014,194.528931 249.491119,201.885635 
	C247.078171,202.078110 245.091995,202.226456 243.105820,202.374786 
	C237.687744,202.258453 232.269653,202.142105 226.378876,201.987061 
	C225.937027,192.990921 225.967896,184.033493 225.994293,174.622040 
z"/>
<path fill="#554E56" opacity="1.000000" stroke="none" 
	d="
M198.965897,100.430817 
	C191.954575,101.030853 184.805893,100.312744 178.287964,104.804718 
	C177.967926,96.176552 178.001541,87.503510 178.074371,78.355537 
	C184.757370,77.920197 191.401184,77.959778 198.510773,78.059967 
	C198.981689,85.403809 198.986832,92.687050 198.965897,100.430817 
z"/>
<path fill="#02C0F9" opacity="1.000000" stroke="none" 
	d="
M233.114059,437.079193 
	C239.069901,440.257996 245.309341,443.011139 250.900864,446.736725 
	C256.370148,450.380829 261.115234,450.692322 266.226318,446.555298 
	C267.628662,445.420197 269.332428,444.657440 271.092102,443.434540 
	C274.476410,441.448730 277.666473,439.752167 281.130768,437.909760 
	C300.970490,457.724701 320.771576,477.501007 340.688629,497.573822 
	C304.849030,497.914093 268.893463,497.970276 232.937881,497.996796 
	C213.294846,498.011261 193.651794,497.975586 173.649872,497.615234 
	C175.637360,494.908112 177.984146,492.548706 180.330048,490.188416 
	C197.924805,472.485413 215.519409,454.782288 233.114059,437.079193 
z"/>
<path fill="#D8AA5E" opacity="1.000000" stroke="none" 
	d="
M206.064240,420.990662 
	C210.268768,423.450867 214.473297,425.911072 218.690491,428.967773 
	C201.826782,446.519012 184.935730,463.459106 168.082169,480.436462 
	C162.353683,486.207031 156.719681,492.071411 151.042496,497.892883 
	C144.274124,497.909790 137.505753,497.926666 130.256485,497.898712 
	C134.751236,492.744080 139.726883,487.634308 145.142456,482.092285 
	C165.742996,461.436890 185.903610,441.213806 206.064240,420.990662 
z"/>
<path fill="#E8B666" opacity="1.000000" stroke="none" 
	d="
M308.749847,422.954559 
	C321.312653,434.989349 333.517700,447.023621 345.664185,459.116730 
	C358.410889,471.807465 371.101471,484.554504 383.958374,497.574463 
	C377.704102,497.903748 371.308014,497.935516 364.441010,497.930664 
	C356.879669,490.663055 349.834137,483.387421 342.689301,476.210602 
	C328.385834,461.843231 314.064667,447.492981 299.660278,433.227020 
	C296.937195,430.530121 295.980499,428.555786 300.351410,426.755951 
	C303.078857,425.632843 305.698395,424.247528 308.749847,422.954559 
z"/>
<path fill="#E8B666" opacity="1.000000" stroke="none" 
	d="
M151.505676,497.929474 
	C156.719681,492.071411 162.353683,486.207031 168.082169,480.436462 
	C184.935730,463.459106 201.826782,446.519012 218.855331,429.264343 
	C223.590515,431.469666 228.173538,433.974945 232.935303,436.779694 
	C215.519409,454.782288 197.924805,472.485413 180.330048,490.188416 
	C177.984146,492.548706 175.637360,494.908112 173.187958,497.576050 
	C166.046249,497.911438 159.007538,497.938751 151.505676,497.929474 
z"/>
<path fill="#B6AEB7" opacity="1.000000" stroke="none" 
	d="
M343.136841,344.589417 
	C338.354889,347.938721 333.520996,350.816254 328.356445,353.777435 
	C328.026489,330.237213 327.951324,306.612762 328.135223,282.990295 
	C328.155548,280.378418 328.939758,277.004333 330.677032,275.395599 
	C332.327789,273.866974 335.881134,273.356476 338.261108,273.892822 
	C341.903442,274.713715 343.051208,278.068176 343.042023,281.731537 
	C343.008209,295.207031 343.025696,308.682678 343.035004,322.158264 
	C343.040070,329.478058 343.067566,336.797821 343.136841,344.589417 
z"/>
<path fill="#B6AEB7" opacity="1.000000" stroke="none" 
	d="
M171.186630,344.306763 
	C170.972015,323.788055 170.974625,303.520203 170.999390,283.252319 
	C171.008804,275.542023 173.424576,273.113892 181.442337,273.083740 
	C183.218964,276.851349 185.727646,280.572571 185.786758,284.332275 
	C186.141052,306.861023 185.931808,329.398590 185.862640,352.383362 
	C181.013412,350.074829 176.213043,347.316193 171.186630,344.306763 
z"/>
<path fill="#F2EFF2" opacity="1.000000" stroke="none" 
	d="
M243.078827,202.807709 
	C245.091995,202.226456 247.078171,202.078110 249.936768,201.938232 
	C252.889938,202.021072 254.970703,202.095474 257.038147,202.627686 
	C257.016205,223.478348 256.980316,243.871307 257.043304,264.263947 
	C257.049286,266.196228 257.675323,268.126587 258.013519,270.057861 
	C254.293396,270.287262 250.565033,270.737701 246.858597,270.599640 
	C245.860443,270.562469 244.481155,268.892639 244.067535,267.698425 
	C243.379745,265.712463 243.061829,263.505981 243.055435,261.390930 
	C242.996841,242.007660 243.039032,222.624100 243.078827,202.807709 
z"/>
<path fill="#FFFFFF" opacity="1.000000" stroke="none" 
	d="
M258.470795,270.051514 
	C257.675323,268.126587 257.049286,266.196228 257.043304,264.263947 
	C256.980316,243.871307 257.016205,223.478348 257.471252,202.592072 
	C259.956757,202.039917 261.995911,201.981186 264.035034,201.922455 
	C265.702423,202.000412 267.369812,202.078369 269.446411,202.221298 
	C269.907593,223.266052 269.907471,244.246201 270.059570,265.225250 
	C270.087006,269.011261 268.450745,270.300018 264.921082,270.058319 
	C262.932434,269.922150 260.926331,270.041138 258.470795,270.051514 
z"/>
<path fill="#BC5F4D" opacity="1.000000" stroke="none" 
	d="
M234.714020,138.878799 
	C238.273407,135.247253 241.768890,135.695465 245.310654,138.125198 
	C253.216309,143.548706 260.974487,143.534790 268.869904,137.940826 
	C272.862396,135.112137 276.955261,135.782059 279.504883,139.132339 
	C282.035461,142.457596 281.437958,146.513763 277.944489,149.725082 
	C267.286102,159.522644 246.845474,159.497864 236.073608,149.778900 
	C232.537186,146.588150 231.953049,143.170776 234.714020,138.878799 
z"/>
<path fill="#BC5F4D" opacity="1.000000" stroke="none" 
	d="
M258.648346,134.067566 
	C251.148788,134.193512 246.758224,129.418533 242.796234,124.677055 
	C241.598557,123.243729 242.147156,119.420265 243.149261,117.277924 
	C245.100143,113.107262 247.830490,109.278664 250.437271,105.443855 
	C252.924286,101.785255 257.467010,100.707756 260.869171,102.700050 
	C264.210175,104.656525 265.472595,109.379303 263.096527,113.201118 
	C260.861298,116.796486 259.478607,119.432320 263.207336,123.360542 
	C266.324280,126.644257 263.951965,131.524399 258.648346,134.067566 
z"/>
<path fill="#CBC4CC" opacity="1.000000" stroke="none" 
	d="
M264.031372,201.460861 
	C261.995911,201.981186 259.956757,202.039917 257.484558,202.134247 
	C254.970703,202.095474 252.889938,202.021072 250.363541,201.894104 
	C249.933014,194.528931 249.948120,187.216339 249.946869,179.431152 
	C253.968765,178.907181 258.007050,178.855804 262.501862,178.732452 
	C263.128052,178.729477 263.297699,178.798447 263.732971,178.937332 
	C264.008270,186.337921 264.017975,193.668594 264.031372,201.460861 
z"/>
<path fill="#BC5F4D" opacity="1.000000" stroke="none" 
	d="
M225.398743,120.713562 
	C217.867157,115.685661 217.577881,102.851448 224.753143,97.637405 
	C231.498795,97.284317 234.712219,100.167839 234.910522,106.414268 
	C234.979218,108.577637 235.061340,110.759407 234.867813,112.908508 
	C234.405060,118.047241 231.799271,120.232407 225.398743,120.713562 
z"/>
<path fill="#BD5F4D" opacity="1.000000" stroke="none" 
	d="
M292.791351,117.413467 
	C290.285797,120.285210 287.274567,122.215187 284.337158,119.981621 
	C282.003387,118.207016 280.290894,115.139610 279.246338,112.299133 
	C278.442352,110.112900 278.924316,107.370041 279.156036,104.904930 
	C279.575378,100.444214 283.067291,97.148666 286.902740,97.314026 
	C291.034698,97.492172 294.029694,100.598526 294.001923,105.330864 
	C293.978943,109.246208 293.358185,113.158043 292.791351,117.413467 
z"/>
<path fill="#03C0F9" opacity="1.000000" stroke="none" 
	d="
M205.867126,420.708435 
	C185.903610,441.213806 165.742996,461.436890 145.275589,481.783539 
	C143.645447,475.133209 141.577469,468.403809 141.169876,461.575287 
	C140.526871,450.802551 140.871643,439.961395 141.029999,429.152588 
	C141.247375,414.315277 148.407303,403.341858 160.779343,395.084167 
	C175.950531,403.432129 190.810287,411.929138 205.867126,420.708435 
z"/>
</svg>